<svg width="127" height="28" viewBox="0 0 127 28" fill="none" xmlns="http://www.w3.org/2000/svg">
<path d="M13.6393 6.23617C10.3126 6.23617 7.77606 7.82661 6.52856 10.8819L6.32065 6.65471H0V27.5815H7.06915V16.4903C7.06915 13.0164 8.77406 11.6771 10.8116 11.6771C12.5581 11.6771 13.764 12.6398 13.764 15.5277V27.5815H20.8332V13.6442C20.8332 8.78924 17.9224 6.23617 13.6393 6.23617Z" fill="#F5F5F5"/>
<path d="M35.6833 6.23617C29.1963 6.23617 24.7053 10.2541 24.7053 17.1181C24.7053 23.9821 29.1963 28 35.6833 28C42.2118 28 46.7028 23.9821 46.7028 17.1181C46.7028 10.2541 42.2118 6.23617 35.6833 6.23617ZM35.6833 11.3004C38.1367 11.3004 39.5921 13.0164 39.5921 17.1181C39.5921 21.2197 38.1367 22.9357 35.6833 22.9357C33.2299 22.9357 31.816 21.2197 31.816 17.1181C31.816 13.0164 33.2299 11.3004 35.6833 11.3004Z" fill="#F5F5F5"/>
<path d="M64.9881 22.0149C64.1564 22.6009 63.2832 22.9357 61.9525 22.9357C60.206 22.9357 59.208 22.1405 59.208 20.1315V11.719H65.4039V6.65471H59.208V0L52.1389 1.96711V6.65471H48.5627V11.719H52.1389V21.3034C52.1804 26.1584 55.1328 28 59.8733 28C62.0357 28 64.3643 27.3722 65.7366 26.4096L64.9881 22.0149Z" fill="#F5F5F5"/>
<path d="M78.566 6.23617C72.079 6.23617 67.588 10.2541 67.588 17.1181C67.588 23.9821 72.079 28 78.566 28C85.0945 28 89.5855 23.9821 89.5855 17.1181C89.5855 10.2541 85.0945 6.23617 78.566 6.23617ZM78.566 11.3004C81.0194 11.3004 82.4748 13.0164 82.4748 17.1181C82.4748 21.2197 81.0194 22.9357 78.566 22.9357C76.1125 22.9357 74.6987 21.2197 74.6987 17.1181C74.6987 13.0164 76.1125 11.3004 78.566 11.3004Z" fill="#F5F5F5"/>
<path d="M107.202 6.23617C103.875 6.23617 101.338 7.82661 100.091 10.8819L99.8829 6.65471H93.5622V27.5815H100.631V16.4903C100.631 13.0164 102.336 11.6771 104.374 11.6771C106.12 11.6771 107.326 12.6398 107.326 15.5277V27.5815H114.395V13.6442C114.395 8.78924 111.485 6.23617 107.202 6.23617Z" fill="#F5F5F5"/>
<path d="M122.842 20.3827C120.264 20.3827 118.683 21.8057 118.683 24.1913C118.683 26.5351 120.264 27.9581 122.842 27.9581C125.42 27.9581 127 26.5351 127 24.1913C127 21.8057 125.42 20.3827 122.842 20.3827Z" fill="#F5F5F5"/>
</svg>
